<svg xmlns="http://www.w3.org/2000/svg" width="38" height="38" viewBox="0 0 38 38" fill="none">
  <!-- Glowing Aura Ring -->
  <circle cx="6" cy="6" r="5" fill="#4ADE80" opacity="0.3"/>
  
  <!-- Carrot Green Foliage Top -->
  <path d="M5 5C8 1 12 1 14 4C12 6 9 6 5 5Z" fill="#4ADE80"/>
  <path d="M5 5C2 9 2 13 6 15C7 11 7 8 5 5Z" fill="#22C55E"/>
  <path d="M5 5C9 4 13 8 14 11C11 11 9 9 5 5Z" fill="#86EFAC"/>

  <!-- Carrot Body -->
  <path d="M8 8C13 6 21 12 28 19C32 23 35 30 36 34C34 35 30 32 23 28C12 21 6 13 8 8Z" fill="url(#carrotHoverGradient)"/>
  
  <!-- Shimmer -->
  <path d="M10 10C15 8 22 14 27 20" stroke="#FEF08A" stroke-width="1.5" stroke-linecap="round"/>
  
  <defs>
    <linearGradient id="carrotHoverGradient" x1="8" y1="8" x2="36" y2="34" gradientUnits="userSpaceOnUse">
      <stop offset="0%" stop-color="#FB923C"/>
      <stop offset="50%" stop-color="#F97316"/>
      <stop offset="100%" stop-color="#EA580C"/>
    </linearGradient>
  </defs>
</svg>
